<svg width="39" height="39" viewBox="0 0 39 39" fill="none" xmlns="http://www.w3.org/2000/svg">
<path d="M19.296 38.192C29.732 38.192 38.192 29.732 38.192 19.296C38.192 8.86002 29.732 0.4 19.296 0.4C8.86002 0.4 0.4 8.86002 0.4 19.296C0.4 29.732 8.86002 38.192 19.296 38.192Z" stroke="#EABF89" stroke-width="0.8" stroke-miterlimit="10"/>
<g opacity="0.9">
<path d="M5.12617 16.9218L5.02168 16.4901L5.00899 16.4364L5.06367 16.4286C5.32938 16.3908 5.507 16.1621 5.57734 15.8769C5.61184 15.737 5.61857 15.5999 5.58906 15.4931C5.56034 15.3892 5.49754 15.3145 5.38594 15.287C5.29287 15.2642 5.21468 15.2945 5.14277 15.371C5.06865 15.4499 5.00498 15.5752 4.94844 15.7304L4.94746 15.7314C4.85635 15.9733 4.74677 16.2097 4.58613 16.3681C4.50503 16.448 4.41022 16.5087 4.29805 16.5399C4.18596 16.5712 4.05957 16.5723 3.91621 16.537C3.64692 16.4706 3.48899 16.2894 3.41426 16.0683C3.35886 15.904 3.34861 15.7173 3.37031 15.537L3.40254 15.3593C3.49751 14.974 3.71008 14.5832 4.15938 14.4853L4.20723 14.4745L4.21895 14.5224L4.3166 14.9335L4.27559 14.9442L4.28242 14.9931C4.21419 15.0142 4.13459 15.0689 4.06367 15.1523C3.99319 15.2351 3.93316 15.3435 3.90254 15.4677C3.86202 15.6321 3.86881 15.7557 3.90156 15.8407C3.9336 15.9239 3.99168 15.9729 4.06563 15.9911C4.10804 16.0016 4.14383 15.9976 4.17598 15.9833C4.20914 15.9685 4.24181 15.9411 4.27363 15.9013C4.33828 15.8202 4.39308 15.6965 4.44649 15.5546C4.54051 15.308 4.6527 15.0653 4.81953 14.9032C4.90377 14.8214 5.00284 14.7598 5.12031 14.7284C5.23769 14.6971 5.37078 14.6968 5.52266 14.7343C5.81078 14.8053 5.9882 14.9857 6.07344 15.2196C6.1576 15.4508 6.15062 15.7316 6.08223 16.0087C6.01985 16.2617 5.92506 16.481 5.77949 16.6464C5.63298 16.8129 5.43781 16.9226 5.18184 16.9599L5.13692 16.9657L5.12617 16.9218Z" fill="#EABF89" stroke="#EABF89" stroke-width="0.1"/>
<path d="M6.62845 13.7065L5.0054 11.4888L4.98685 11.4634L5.00247 11.4351L5.25735 10.9868L5.27396 10.9585L5.30618 10.9614L8.04153 11.2241L8.11868 11.231L8.0806 11.2983L7.82474 11.7466L7.80911 11.7749L7.77689 11.772L7.29349 11.7251L6.67825 12.8081L6.96341 13.2026L6.98196 13.229L6.96634 13.2564L6.71243 13.7017L6.67435 13.769L6.62845 13.7065ZM6.70853 11.6607L5.73978 11.5581L6.32376 12.3384L6.70853 11.6607Z" fill="#EABF89" stroke="#EABF89" stroke-width="0.1"/>
<path d="M8.91554 10.2117L7.13918 8.44217L7.10402 8.40701L7.13918 8.37186L7.47316 8.0369L7.50832 8.00076L7.54347 8.0369L8.97511 9.46268L9.85011 8.58377L9.88527 8.54862L9.92043 8.58377L10.23 8.89237L10.2652 8.92752L10.23 8.96268L8.98683 10.2117L8.95168 10.2469L8.91554 10.2117Z" fill="#EABF89" stroke="#EABF89" stroke-width="0.1"/>
<path d="M11.3629 7.97951L10.0972 5.81447L10.0718 5.77151L10.1148 5.74611C10.3808 5.59057 10.6996 5.40457 10.9654 5.24904C11.3474 5.02574 11.7075 4.99823 12.0152 5.09865C12.3217 5.19882 12.5719 5.42451 12.7379 5.69729C12.9075 5.97661 12.9908 6.31147 12.9322 6.63576C12.8733 6.96164 12.6719 7.27182 12.2818 7.50002C12.1489 7.5778 12.0021 7.6636 11.856 7.74904C11.7101 7.83439 11.564 7.91941 11.4312 7.99709L11.3883 8.02248L11.3629 7.97951ZM12.0015 7.02053C12.2355 6.88365 12.3443 6.70631 12.3726 6.52541C12.4011 6.34255 12.3486 6.14937 12.2457 5.98342C12.1471 5.82494 12.0045 5.69557 11.8345 5.63772C11.6663 5.58057 11.4653 5.59108 11.2418 5.7217L10.8394 5.95803L11.6002 7.25686L12.0015 7.02053Z" fill="#EABF89" stroke="#EABF89" stroke-width="0.1"/>
<path d="M15.9417 6.04189C15.5016 6.15181 15.1349 6.07388 14.8577 5.88271C14.5818 5.69235 14.398 5.39243 14.3157 5.06338C14.2334 4.73382 14.2568 4.37499 14.4104 4.07021C14.5648 3.76415 14.8494 3.51559 15.2835 3.40713C15.7156 3.29925 16.0842 3.38418 16.3645 3.58095C16.6396 3.77405 16.826 4.07305 16.9065 4.39638L16.9085 4.39736L16.9358 4.53408C16.9818 4.82282 16.9502 5.12465 16.8177 5.38662C16.6654 5.68734 16.3821 5.93184 15.9417 6.04189ZM15.178 5.42177C15.331 5.5369 15.5391 5.59236 15.8118 5.52431C16.0848 5.45611 16.2423 5.30814 16.3225 5.13369C16.4037 4.95718 16.4082 4.74769 16.3636 4.55459C16.3177 4.35713 16.2128 4.16439 16.054 4.03896C15.897 3.9151 15.6841 3.85397 15.4124 3.92177C15.1404 3.98973 14.9792 4.14529 14.8977 4.32998C14.8361 4.46983 14.8191 4.62844 14.8372 4.78115L14.8665 4.93154L14.9153 5.07216C14.974 5.20957 15.0618 5.33415 15.178 5.42177Z" fill="#EABF89" stroke="#EABF89" stroke-width="0.1"/>
</g>
<g opacity="0.9">
<path d="M16.9221 33.4494L16.4905 33.5539L16.4368 33.5666L16.4289 33.5119C16.3911 33.2462 16.1624 33.0686 15.8772 32.9982C15.7373 32.9637 15.6003 32.957 15.4934 32.9865C15.3895 33.0152 15.3149 33.078 15.2873 33.1896C15.2645 33.2827 15.2948 33.3609 15.3713 33.4328C15.4502 33.5069 15.5755 33.5706 15.7307 33.6271L15.7317 33.6281C15.9736 33.7192 16.21 33.8288 16.3684 33.9894C16.4484 34.0705 16.509 34.1654 16.5403 34.2775C16.5715 34.3896 16.5727 34.516 16.5373 34.6594C16.471 34.9287 16.2898 35.0866 16.0686 35.1613C15.9044 35.2167 15.7176 35.227 15.5373 35.2053L15.3596 35.173C14.9743 35.0781 14.5835 34.8655 14.4856 34.4162L14.4748 34.3683L14.5227 34.3566L14.9338 34.259L14.9446 34.3L14.9934 34.2931C15.0145 34.3614 15.0693 34.441 15.1526 34.5119C15.2354 34.5824 15.3439 34.6424 15.468 34.673C15.6324 34.7136 15.756 34.7068 15.8411 34.674C15.9242 34.642 15.9733 34.5839 15.9914 34.5099C16.0019 34.4675 15.9979 34.4317 15.9836 34.3996C15.9688 34.3664 15.9414 34.3338 15.9016 34.3019C15.8206 34.2373 15.6968 34.1825 15.5549 34.1291C15.3084 34.0351 15.0656 33.9229 14.9036 33.756C14.8217 33.6718 14.7601 33.5727 14.7288 33.4553C14.6974 33.3379 14.6972 33.2048 14.7346 33.0529C14.8056 32.7648 14.9861 32.5874 15.22 32.5021C15.4512 32.418 15.7319 32.425 16.009 32.4933C16.2621 32.5557 16.4813 32.6505 16.6467 32.7961C16.8132 32.9426 16.923 33.1378 16.9602 33.3937L16.9661 33.4387L16.9221 33.4494Z" fill="#EABF89" stroke="#EABF89" stroke-width="0.1"/>
<path d="M13.7064 31.9476L11.4887 33.5706L11.4633 33.5892L11.435 33.5735L10.9867 33.3187L10.9584 33.302L10.9613 33.2698L11.224 30.5345L11.2309 30.4573L11.2982 30.4954L11.7465 30.7513L11.7748 30.7669L11.7719 30.7991L11.725 31.2825L12.808 31.8978L13.2025 31.6126L13.2289 31.594L13.2563 31.6097L13.7016 31.8636L13.7689 31.9017L13.7064 31.9476ZM11.6605 31.8675L11.558 32.8362L12.3383 32.2522L11.6605 31.8675Z" fill="#EABF89" stroke="#EABF89" stroke-width="0.1"/>
<path d="M10.2117 29.6606L8.44221 31.437L8.40706 31.4721L8.3719 31.437L8.03694 31.103L8.00081 31.0678L8.03694 31.0327L9.46272 29.601L8.58381 28.726L8.54866 28.6909L8.58381 28.6557L8.89241 28.3462L8.92756 28.311L8.96272 28.3462L10.2117 29.5893L10.2469 29.6245L10.2117 29.6606Z" fill="#EABF89" stroke="#EABF89" stroke-width="0.1"/>
<path d="M7.9797 27.213L5.81466 28.4786L5.77169 28.504L5.7463 28.461C5.59076 28.1951 5.40476 27.8763 5.24923 27.6105C5.02593 27.2285 4.99842 26.8684 5.09884 26.5607C5.19901 26.2541 5.42469 26.004 5.69747 25.838C5.97679 25.6684 6.31166 25.5851 6.63595 25.6437C6.96183 25.7026 7.27201 25.9039 7.50021 26.2941C7.57799 26.427 7.66379 26.5737 7.74923 26.7198C7.83457 26.8658 7.9196 27.0119 7.99728 27.1446L8.02267 27.1876L7.9797 27.213ZM7.02072 26.5743C6.88384 26.3404 6.70649 26.2315 6.5256 26.2032C6.34274 26.1747 6.14956 26.2272 5.98361 26.3302C5.82513 26.4288 5.69576 26.5714 5.6379 26.7413C5.58076 26.9095 5.59127 27.1106 5.72189 27.3341L5.95822 27.7364L7.25704 26.9757L7.02072 26.5743Z" fill="#EABF89" stroke="#EABF89" stroke-width="0.1"/>
<path d="M6.04208 22.6345C6.152 23.0745 6.07407 23.4412 5.8829 23.7185C5.69254 23.9944 5.39262 24.1781 5.06356 24.2604C4.734 24.3427 4.37518 24.3194 4.0704 24.1657C3.76434 24.0114 3.51577 23.7268 3.40731 23.2927C3.29944 22.8605 3.38436 22.492 3.58114 22.2116C3.77424 21.9366 4.07324 21.7502 4.39657 21.6696L4.39755 21.6677L4.53427 21.6403C4.82301 21.5943 5.12484 21.626 5.3868 21.7585C5.68753 21.9107 5.93203 22.194 6.04208 22.6345ZM5.42196 23.3981C5.53709 23.2452 5.59254 23.0371 5.5245 22.7643C5.45629 22.4914 5.30832 22.3339 5.13387 22.2536C4.95737 22.1724 4.74788 22.168 4.55477 22.2126C4.35732 22.2584 4.16458 22.3633 4.03915 22.5222C3.91528 22.6792 3.85416 22.892 3.92196 23.1638C3.98992 23.4357 4.14547 23.597 4.33016 23.6784C4.47001 23.7401 4.62862 23.7571 4.78134 23.739L4.93173 23.7097L5.07235 23.6608C5.20976 23.6021 5.33434 23.5144 5.42196 23.3981Z" fill="#EABF89" stroke="#EABF89" stroke-width="0.1"/>
</g>
<g opacity="0.9">
<path d="M21.6592 5.12649L22.0908 5.022L22.1445 5.00931L22.1523 5.06399C22.1901 5.3297 22.4189 5.50732 22.7041 5.57767C22.844 5.61216 22.981 5.61889 23.0879 5.58938C23.1918 5.56066 23.2664 5.49786 23.2939 5.38626C23.3168 5.29319 23.2865 5.215 23.21 5.1431C23.131 5.06897 23.0058 5.0053 22.8506 4.94876L22.8496 4.94778C22.6077 4.85667 22.3713 4.74709 22.2129 4.58645C22.1329 4.50535 22.0723 4.41054 22.041 4.29837C22.0098 4.18628 22.0086 4.05989 22.0439 3.91653C22.1103 3.64724 22.2915 3.48931 22.5127 3.41458C22.6769 3.35919 22.8636 3.34893 23.0439 3.37063L23.2217 3.40286C23.607 3.49783 23.9978 3.7104 24.0957 4.1597L24.1064 4.20755L24.0586 4.21927L23.6475 4.31692L23.6367 4.27591L23.5879 4.28274C23.5667 4.21451 23.512 4.13491 23.4287 4.06399C23.3459 3.99351 23.2374 3.93348 23.1133 3.90286C22.9489 3.86234 22.8253 3.86913 22.7402 3.90188C22.6571 3.93392 22.608 3.992 22.5898 4.06595C22.5794 4.10836 22.5834 4.14416 22.5976 4.1763C22.6125 4.20946 22.6399 4.24213 22.6797 4.27395C22.7607 4.3386 22.8845 4.3934 23.0264 4.44681C23.2729 4.54083 23.5157 4.65302 23.6777 4.81985C23.7596 4.90409 23.8211 5.00317 23.8525 5.12063C23.8839 5.23801 23.8841 5.3711 23.8467 5.52298C23.7756 5.8111 23.5952 5.98852 23.3613 6.07376C23.1301 6.15792 22.8494 6.15094 22.5723 6.08255C22.3192 6.02017 22.1 5.92538 21.9346 5.77981C21.7681 5.6333 21.6583 5.43813 21.6211 5.18216L21.6152 5.13724L21.6592 5.12649Z" fill="#EABF89" stroke="#EABF89" stroke-width="0.1"/>
<path d="M24.8743 6.62834L27.092 5.00529L27.1174 4.98673L27.1457 5.00236L27.594 5.25724L27.6223 5.27384L27.6194 5.30607L27.3567 8.04142L27.3498 8.11857L27.2825 8.08048L26.8342 7.82463L26.8059 7.809L26.8088 7.77677L26.8557 7.29338L25.7727 6.67814L25.3782 6.9633L25.3518 6.98185L25.3245 6.96623L24.8791 6.71232L24.8118 6.67423L24.8743 6.62834ZM26.9202 6.70841L27.0227 5.73966L26.2424 6.32365L26.9202 6.70841Z" fill="#EABF89" stroke="#EABF89" stroke-width="0.1"/>
<path d="M28.369 8.91543L30.1385 7.13906L30.1736 7.10391L30.2088 7.13906L30.5438 7.47305L30.5799 7.5082L30.5438 7.54336L29.118 8.975L29.9969 9.85L30.032 9.88516L29.9969 9.92031L29.6883 10.2299L29.6531 10.265L29.618 10.2299L28.369 8.98672L28.3338 8.95156L28.369 8.91543Z" fill="#EABF89" stroke="#EABF89" stroke-width="0.1"/>
<path d="M30.6016 11.363L32.7666 10.0974L32.8096 10.072L32.835 10.115C32.9905 10.381 33.1765 10.6998 33.332 10.9656C33.5554 11.3476 33.5829 11.7076 33.4824 12.0154C33.3823 12.3219 33.1566 12.572 32.8838 12.738C32.6045 12.9077 32.2696 12.991 31.9453 12.9324C31.6195 12.8735 31.3093 12.6721 31.0811 12.282C31.0033 12.1491 30.9175 12.0023 30.832 11.8562C30.7467 11.7103 30.6617 11.5642 30.584 11.4314L30.5586 11.3884L30.6016 11.363ZM31.5606 12.0017C31.6974 12.2357 31.8748 12.3445 32.0557 12.3728C32.2385 12.4013 32.4317 12.3488 32.5977 12.2459C32.7562 12.1473 32.8855 12.0046 32.9434 11.8347C33.0005 11.6665 32.99 11.4654 32.8594 11.2419L32.6231 10.8396L31.3242 11.6003L31.5606 12.0017Z" fill="#EABF89" stroke="#EABF89" stroke-width="0.1"/>
<path d="M32.5386 15.9414C32.4287 15.5014 32.5066 15.1347 32.6978 14.8574C32.8882 14.5815 33.1881 14.3978 33.5171 14.3155C33.8467 14.2332 34.2055 14.2565 34.5103 14.4102C34.8164 14.5645 35.0649 14.8491 35.1734 15.2832C35.2813 15.7154 35.1963 16.0839 34.9996 16.3643C34.8065 16.6393 34.5075 16.8257 34.1841 16.9063L34.1832 16.9082L34.0464 16.9356C33.7577 16.9816 33.4559 16.9499 33.1939 16.8174C32.8932 16.6652 32.6487 16.3819 32.5386 15.9414ZM33.1587 15.1778C33.0436 15.3307 32.9882 15.5388 33.0562 15.8115C33.1244 16.0845 33.2724 16.242 33.4468 16.3223C33.6233 16.4034 33.8328 16.4079 34.0259 16.3633C34.2234 16.3175 34.4161 16.2126 34.5416 16.0537C34.6654 15.8967 34.7265 15.6839 34.6587 15.4121C34.5908 15.1402 34.4352 14.9789 34.2505 14.8975C34.1107 14.8358 33.9521 14.8188 33.7994 14.8369L33.649 14.8662L33.5084 14.9151C33.3709 14.9738 33.2464 15.0615 33.1587 15.1778Z" fill="#EABF89" stroke="#EABF89" stroke-width="0.1"/>
</g>
<g opacity="0.9">
<path d="M33.4497 21.6589L33.5542 22.0905L33.5669 22.1442L33.5122 22.152C33.2465 22.1899 33.0689 22.4186 32.9985 22.7038C32.964 22.8437 32.9573 22.9807 32.9868 23.0876C33.0155 23.1915 33.0783 23.2661 33.1899 23.2936C33.283 23.3165 33.3612 23.2862 33.4331 23.2097C33.5072 23.1307 33.5709 23.0055 33.6274 22.8503L33.6284 22.8493C33.7195 22.6074 33.8291 22.371 33.9897 22.2126C34.0708 22.1326 34.1656 22.072 34.2778 22.0407C34.3899 22.0095 34.5163 22.0083 34.6597 22.0436C34.9289 22.11 35.0869 22.2912 35.1616 22.5124C35.217 22.6766 35.2273 22.8634 35.2055 23.0436L35.1733 23.2214C35.0784 23.6067 34.8658 23.9975 34.4165 24.0954L34.3686 24.1061L34.3569 24.0583L34.2593 23.6472L34.3003 23.6364L34.2934 23.5876C34.3617 23.5665 34.4413 23.5117 34.5122 23.4284C34.5827 23.3456 34.6427 23.2371 34.6733 23.113C34.7138 22.9486 34.707 22.825 34.6743 22.7399C34.6423 22.6568 34.5842 22.6077 34.5102 22.5895C34.4678 22.5791 34.432 22.5831 34.3999 22.5974C34.3667 22.6122 34.3341 22.6396 34.3022 22.6794C34.2376 22.7604 34.1828 22.8842 34.1294 23.0261C34.0354 23.2726 33.9232 23.5154 33.7563 23.6774C33.6721 23.7593 33.573 23.8209 33.4555 23.8522C33.3382 23.8836 33.2051 23.8838 33.0532 23.8464C32.7651 23.7753 32.5877 23.5949 32.5024 23.361C32.4183 23.1298 32.4252 22.8491 32.4936 22.572C32.556 22.3189 32.6508 22.0997 32.7964 21.9343C32.9429 21.7678 33.1381 21.658 33.394 21.6208L33.4389 21.6149L33.4497 21.6589Z" fill="#EABF89" stroke="#EABF89" stroke-width="0.1"/>
<path d="M31.948 24.8741L33.571 27.0919L33.5896 27.1173L33.574 27.1456L33.3191 27.5938L33.3025 27.6222L33.2703 27.6192L30.5349 27.3565L30.4578 27.3497L30.4958 27.2823L30.7517 26.8341L30.7673 26.8058L30.7996 26.8087L31.283 26.8556L31.8982 25.7726L31.613 25.378L31.5945 25.3517L31.6101 25.3243L31.864 24.879L31.9021 24.8116L31.948 24.8741ZM31.8679 26.92L32.8367 27.0226L32.2527 26.2423L31.8679 26.92Z" fill="#EABF89" stroke="#EABF89" stroke-width="0.1"/>
<path d="M29.6609 28.3688L31.4373 30.1383L31.4724 30.1735L31.4373 30.2087L31.1033 30.5436L31.0681 30.5798L31.033 30.5436L29.6013 29.1178L28.7263 29.9967L28.6912 30.0319L28.656 29.9967L28.3464 29.6882L28.3113 29.653L28.3464 29.6178L29.5896 28.3688L29.6248 28.3337L29.6609 28.3688Z" fill="#EABF89" stroke="#EABF89" stroke-width="0.1"/>
<path d="M27.213 30.6011L28.4786 32.7662L28.504 32.8092L28.461 32.8345C28.1951 32.9901 27.8763 33.1761 27.6105 33.3316C27.2285 33.5549 26.8684 33.5824 26.5607 33.482C26.2541 33.3818 26.004 33.1562 25.838 32.8834C25.6684 32.6041 25.5851 32.2692 25.6437 31.9449C25.7026 31.619 25.9039 31.3088 26.2941 31.0806C26.427 31.0029 26.5737 30.9171 26.7198 30.8316C26.8658 30.7463 27.0119 30.6613 27.1446 30.5836L27.1876 30.5582L27.213 30.6011ZM26.5743 31.5601C26.3404 31.697 26.2315 31.8744 26.2032 32.0553C26.1747 32.2381 26.2272 32.4313 26.3302 32.5972C26.4288 32.7557 26.5714 32.8851 26.7413 32.9429C26.9095 33.0001 27.1106 32.9896 27.3341 32.859L27.7364 32.6226L26.9757 31.3238L26.5743 31.5601Z" fill="#EABF89" stroke="#EABF89" stroke-width="0.1"/>
<path d="M22.6348 32.5386C23.0748 32.4287 23.4415 32.5066 23.7187 32.6978C23.9947 32.8882 24.1784 33.1881 24.2607 33.5171C24.343 33.8467 24.3197 34.2055 24.166 34.5103C24.0117 34.8164 23.727 35.0649 23.293 35.1734C22.8608 35.2813 22.4922 35.1963 22.2119 34.9996C21.9369 34.8065 21.7504 34.5075 21.6699 34.1841L21.668 34.1832L21.6406 34.0464C21.5946 33.7577 21.6263 33.4559 21.7588 33.1939C21.911 32.8932 22.1943 32.6487 22.6348 32.5386ZM23.3984 33.1587C23.2454 33.0436 23.0374 32.9882 22.7646 33.0562C22.4917 33.1244 22.3342 33.2724 22.2539 33.4468C22.1727 33.6233 22.1683 33.8328 22.2129 34.0259C22.2587 34.2234 22.3636 34.4161 22.5225 34.5416C22.6795 34.6654 22.8923 34.7265 23.1641 34.6587C23.436 34.5908 23.5973 34.4352 23.6787 34.2505C23.7403 34.1107 23.7574 33.9521 23.7392 33.7994L23.71 33.649L23.6611 33.5084C23.6024 33.3709 23.5147 33.2464 23.3984 33.1587Z" fill="#EABF89" stroke="#EABF89" stroke-width="0.1"/>
</g>
</svg>
